<?xml version="1.0" encoding="iso-8859-1"?>
<!-- Uploaded to: SVG Repo, www.svgrepo.com, Generator: SVG Repo Mixer Tools -->
<svg fill="#000000" height="800px" width="800px" version="1.1" id="Layer_1" xmlns="http://www.w3.org/2000/svg" xmlns:xlink="http://www.w3.org/1999/xlink" 
	 viewBox="0 0 512 512" xml:space="preserve">
<g>
	<g>
		<path d="M395.13,217.043H372.87h-46.305c-5.277,0-10.418-0.81-15.419-2.445c-12.631-4.011-23.358-13.24-29.419-25.277
			l-48.304-96.614c-2.83-5.658-8.608-9.228-14.934-9.228H16.696C7.473,83.478,0,90.951,0,100.174v244.87v33.391
			c0,27.619,22.468,50.087,50.087,50.087h411.826c27.619,0,50.087-22.468,50.087-50.087v-33.391v-11.13
			C512,269.472,459.571,217.043,395.13,217.043z M389.565,250.435h5.565c44.158,0,80.419,34.468,83.293,77.913h-88.859V250.435z
			 M289.391,241.583c3.76,1.878,7.621,3.562,11.647,4.841c6.877,2.249,14.256,3.376,21.744,3.715v28.122
			c0,9.223-7.473,16.696-16.696,16.696c-9.223,0-16.696-7.473-16.696-16.696V241.583z M251.864,204.256
			c4.669,9.276,11.051,17.47,18.584,24.338l-19.514,34.815c-3.06,5.462-8.734,8.538-14.582,8.538c-2.76,0-5.565-0.69-8.146-2.136
			c-8.044-4.511-10.908-14.684-6.402-22.728l27.205-48.535L251.864,204.256z M171.848,188.544l48.108-48.108l15.738,31.479
			l-40.238,40.238c-3.261,3.261-7.533,4.892-11.804,4.892c-4.271,0-8.544-1.631-11.804-4.892
			C165.326,205.636,165.326,195.06,171.848,188.544z M478.609,378.435c0,9.206-7.49,16.696-16.696,16.696H50.087
			c-9.206,0-16.696-7.49-16.696-16.696v-16.696H372.87h105.739V378.435z"/>
	</g>
</g>
</svg>